<mxfile host="app.diagrams.net" modified="2023-07-20T23:16:57.268Z" agent="Mozilla/5.0 (Windows NT 10.0; Win64; x64) AppleWebKit/537.36 (KHTML, like Gecko) Chrome/114.0.0.0 Safari/537.36 Edg/114.0.1823.86" etag="TOJEwhxP9_jeMKN0-qmk" version="21.6.5" type="github">
  <diagram name="Page-1" id="tomQqUyaEOGMMjJDX0uW">
    <mxGraphModel dx="1400" dy="831" grid="1" gridSize="10" guides="1" tooltips="1" connect="1" arrows="1" fold="1" page="1" pageScale="1" pageWidth="1169" pageHeight="827" math="0" shadow="0">
      <root>
        <mxCell id="0" />
        <mxCell id="1" parent="0" />
        <mxCell id="JqWRJYdm6F3INh0vFG3V-35" value="" style="edgeStyle=orthogonalEdgeStyle;fontSize=12;html=1;endArrow=ERzeroToMany;startArrow=ERmandOne;rounded=1;shadow=0;labelBackgroundColor=none;strokeColor=#457B9D;fontColor=default;strokeWidth=2;" edge="1" parent="1">
          <mxGeometry width="100" height="100" relative="1" as="geometry">
            <mxPoint x="800" y="620" as="sourcePoint" />
            <mxPoint x="830" y="710" as="targetPoint" />
            <Array as="points">
              <mxPoint x="810" y="619.69" />
              <mxPoint x="829" y="620.69" />
            </Array>
          </mxGeometry>
        </mxCell>
        <mxCell id="JqWRJYdm6F3INh0vFG3V-6" value="Student" style="swimlane;childLayout=stackLayout;horizontal=1;startSize=50;horizontalStack=0;rounded=1;fontSize=14;fontStyle=0;strokeWidth=2;resizeParent=0;resizeLast=1;shadow=0;dashed=0;align=center;arcSize=4;whiteSpace=wrap;html=1;labelBackgroundColor=none;fillColor=#A8DADC;strokeColor=#457B9D;fontColor=#1D3557;" vertex="1" parent="1">
          <mxGeometry x="40" y="50" width="180" height="230" as="geometry" />
        </mxCell>
        <mxCell id="JqWRJYdm6F3INh0vFG3V-7" value="&lt;font style=&quot;font-size: 14px;&quot;&gt;&lt;u&gt;&lt;b&gt;student_id INT (PK)&lt;/b&gt;&lt;/u&gt;&lt;br&gt;first_name VARCHAR(25)&lt;br&gt;last_name VARCHAR(25)&lt;br&gt;email VARCHAR(50)&lt;br&gt;phone CHAR(11)&lt;br&gt;address VARCHAR(200)&lt;br&gt;faculty_id INT (FK)&lt;br&gt;department_id INT (FK)&lt;br&gt;session_id INT (FK)&lt;br&gt;&lt;/font&gt;" style="align=left;strokeColor=none;fillColor=none;spacingLeft=4;fontSize=12;verticalAlign=top;resizable=0;rotatable=0;part=1;html=1;rounded=1;labelBackgroundColor=none;fontColor=#1D3557;" vertex="1" parent="JqWRJYdm6F3INh0vFG3V-6">
          <mxGeometry y="50" width="180" height="180" as="geometry" />
        </mxCell>
        <mxCell id="JqWRJYdm6F3INh0vFG3V-8" value="Guardian" style="swimlane;childLayout=stackLayout;horizontal=1;startSize=50;horizontalStack=0;rounded=1;fontSize=14;fontStyle=0;strokeWidth=2;resizeParent=0;resizeLast=1;shadow=0;dashed=0;align=center;arcSize=4;whiteSpace=wrap;html=1;labelBackgroundColor=none;fillColor=#A8DADC;strokeColor=#457B9D;fontColor=#1D3557;" vertex="1" parent="1">
          <mxGeometry x="40" y="400" width="180" height="170" as="geometry" />
        </mxCell>
        <mxCell id="JqWRJYdm6F3INh0vFG3V-9" value="&lt;font style=&quot;font-size: 14px;&quot;&gt;&lt;u&gt;&lt;b&gt;guardian_id INT (PK)&lt;/b&gt;&lt;/u&gt;&lt;br&gt;first_name VARCHAR(25)&lt;br&gt;last_name VARCHAR(25)&lt;br&gt;email VARCHAR(50)&lt;br&gt;phone CHAR(11)&lt;br&gt;address VARCHAR(200)&lt;br&gt;&lt;br&gt;&lt;/font&gt;" style="align=left;strokeColor=none;fillColor=none;spacingLeft=4;fontSize=12;verticalAlign=top;resizable=0;rotatable=0;part=1;html=1;rounded=1;labelBackgroundColor=none;fontColor=#1D3557;" vertex="1" parent="JqWRJYdm6F3INh0vFG3V-8">
          <mxGeometry y="50" width="180" height="120" as="geometry" />
        </mxCell>
        <mxCell id="JqWRJYdm6F3INh0vFG3V-12" value="Student_guardians" style="swimlane;childLayout=stackLayout;horizontal=1;startSize=50;horizontalStack=0;rounded=1;fontSize=14;fontStyle=0;strokeWidth=2;resizeParent=0;resizeLast=1;shadow=0;dashed=0;align=center;arcSize=4;whiteSpace=wrap;html=1;labelBackgroundColor=none;fillColor=#A8DADC;strokeColor=#457B9D;fontColor=#1D3557;" vertex="1" parent="1">
          <mxGeometry x="280" y="280" width="180" height="110" as="geometry" />
        </mxCell>
        <mxCell id="JqWRJYdm6F3INh0vFG3V-13" value="&lt;font style=&quot;font-size: 14px;&quot;&gt;&lt;u&gt;&lt;b&gt;guardian_id INT (PK)&lt;/b&gt;&lt;/u&gt;&lt;br&gt;&lt;b&gt;&lt;u&gt;student_id INT PK)&lt;/u&gt;&lt;/b&gt;&lt;br&gt;&lt;/font&gt;" style="align=left;strokeColor=none;fillColor=none;spacingLeft=4;fontSize=12;verticalAlign=top;resizable=0;rotatable=0;part=1;html=1;rounded=1;labelBackgroundColor=none;fontColor=#1D3557;" vertex="1" parent="JqWRJYdm6F3INh0vFG3V-12">
          <mxGeometry y="50" width="180" height="60" as="geometry" />
        </mxCell>
        <mxCell id="JqWRJYdm6F3INh0vFG3V-14" value="Session" style="swimlane;childLayout=stackLayout;horizontal=1;startSize=50;horizontalStack=0;rounded=1;fontSize=14;fontStyle=0;strokeWidth=2;resizeParent=0;resizeLast=1;shadow=0;dashed=0;align=center;arcSize=4;whiteSpace=wrap;html=1;labelBackgroundColor=none;fillColor=#A8DADC;strokeColor=#457B9D;fontColor=#1D3557;" vertex="1" parent="1">
          <mxGeometry x="740" y="30" width="180" height="130" as="geometry" />
        </mxCell>
        <mxCell id="JqWRJYdm6F3INh0vFG3V-15" value="&lt;font style=&quot;font-size: 14px;&quot;&gt;&lt;b&gt;&lt;u&gt;student_id INT (PK)&lt;br&gt;session id INT (PK)&lt;/u&gt;&lt;br&gt;&lt;/b&gt;year DATE&lt;br&gt;GPA&lt;br&gt;&lt;br&gt;&lt;br&gt;&lt;/font&gt;" style="align=left;strokeColor=none;fillColor=none;spacingLeft=4;fontSize=12;verticalAlign=top;resizable=0;rotatable=0;part=1;html=1;rounded=1;labelBackgroundColor=none;fontColor=#1D3557;" vertex="1" parent="JqWRJYdm6F3INh0vFG3V-14">
          <mxGeometry y="50" width="180" height="80" as="geometry" />
        </mxCell>
        <mxCell id="JqWRJYdm6F3INh0vFG3V-16" value="Faculty" style="swimlane;childLayout=stackLayout;horizontal=1;startSize=50;horizontalStack=0;rounded=1;fontSize=14;fontStyle=0;strokeWidth=2;resizeParent=0;resizeLast=1;shadow=0;dashed=0;align=center;arcSize=4;whiteSpace=wrap;html=1;labelBackgroundColor=none;fillColor=#A8DADC;strokeColor=#457B9D;fontColor=#1D3557;" vertex="1" parent="1">
          <mxGeometry x="470" y="420" width="200" height="110" as="geometry" />
        </mxCell>
        <mxCell id="JqWRJYdm6F3INh0vFG3V-17" value="&lt;font style=&quot;font-size: 14px;&quot;&gt;&lt;b&gt;&lt;u&gt;faculty_id INT (PK)&lt;br&gt;&lt;/u&gt;&lt;/b&gt;name VARCHAR(25)&lt;br&gt;department_id INT (FK)&lt;br&gt;&lt;/font&gt;" style="align=left;strokeColor=none;fillColor=none;spacingLeft=4;fontSize=12;verticalAlign=top;resizable=0;rotatable=0;part=1;html=1;rounded=1;labelBackgroundColor=none;fontColor=#1D3557;" vertex="1" parent="JqWRJYdm6F3INh0vFG3V-16">
          <mxGeometry y="50" width="200" height="60" as="geometry" />
        </mxCell>
        <mxCell id="JqWRJYdm6F3INh0vFG3V-18" value="Department" style="swimlane;childLayout=stackLayout;horizontal=1;startSize=50;horizontalStack=0;rounded=1;fontSize=14;fontStyle=0;strokeWidth=2;resizeParent=0;resizeLast=1;shadow=0;dashed=0;align=center;arcSize=4;whiteSpace=wrap;html=1;labelBackgroundColor=none;fillColor=#A8DADC;strokeColor=#457B9D;fontColor=#1D3557;" vertex="1" parent="1">
          <mxGeometry x="600" y="570" width="200" height="110" as="geometry" />
        </mxCell>
        <mxCell id="JqWRJYdm6F3INh0vFG3V-19" value="&lt;font style=&quot;font-size: 14px;&quot;&gt;&lt;b&gt;&lt;u&gt;department_id INT (PK)&lt;br&gt;&lt;/u&gt;&lt;/b&gt;name VARCHAR(25)&lt;br&gt;&lt;br&gt;&lt;/font&gt;" style="align=left;strokeColor=none;fillColor=none;spacingLeft=4;fontSize=12;verticalAlign=top;resizable=0;rotatable=0;part=1;html=1;rounded=1;labelBackgroundColor=none;fontColor=#1D3557;" vertex="1" parent="JqWRJYdm6F3INh0vFG3V-18">
          <mxGeometry y="50" width="200" height="60" as="geometry" />
        </mxCell>
        <mxCell id="JqWRJYdm6F3INh0vFG3V-20" value="Course" style="swimlane;childLayout=stackLayout;horizontal=1;startSize=50;horizontalStack=0;rounded=1;fontSize=14;fontStyle=0;strokeWidth=2;resizeParent=0;resizeLast=1;shadow=0;dashed=0;align=center;arcSize=4;whiteSpace=wrap;html=1;labelBackgroundColor=none;fillColor=#A8DADC;strokeColor=#457B9D;fontColor=#1D3557;" vertex="1" parent="1">
          <mxGeometry x="910" y="570" width="200" height="130" as="geometry" />
        </mxCell>
        <mxCell id="JqWRJYdm6F3INh0vFG3V-21" value="&lt;font style=&quot;font-size: 14px;&quot;&gt;&lt;b&gt;&lt;u&gt;course_id INT (PK)&lt;br&gt;&lt;/u&gt;&lt;/b&gt;name VARCHAR(25)&lt;br&gt;total_mark INT&lt;br&gt;total_credit INT&lt;br&gt;&lt;/font&gt;" style="align=left;strokeColor=none;fillColor=none;spacingLeft=4;fontSize=12;verticalAlign=top;resizable=0;rotatable=0;part=1;html=1;rounded=1;labelBackgroundColor=none;fontColor=#1D3557;" vertex="1" parent="JqWRJYdm6F3INh0vFG3V-20">
          <mxGeometry y="50" width="200" height="80" as="geometry" />
        </mxCell>
        <mxCell id="JqWRJYdm6F3INh0vFG3V-23" value="Department_course" style="swimlane;childLayout=stackLayout;horizontal=1;startSize=50;horizontalStack=0;rounded=1;fontSize=14;fontStyle=0;strokeWidth=2;resizeParent=0;resizeLast=1;shadow=0;dashed=0;align=center;arcSize=4;whiteSpace=wrap;html=1;labelBackgroundColor=none;fillColor=#A8DADC;strokeColor=#457B9D;fontColor=#1D3557;" vertex="1" parent="1">
          <mxGeometry x="760" y="710" width="200" height="110" as="geometry" />
        </mxCell>
        <mxCell id="JqWRJYdm6F3INh0vFG3V-24" value="&lt;font style=&quot;font-size: 14px;&quot;&gt;&lt;b&gt;&lt;u&gt;department_id INT (PK)&lt;br&gt;course_id INT (PK)&lt;/u&gt;&lt;/b&gt;&lt;br&gt;&lt;br&gt;&lt;/font&gt;" style="align=left;strokeColor=none;fillColor=none;spacingLeft=4;fontSize=12;verticalAlign=top;resizable=0;rotatable=0;part=1;html=1;rounded=1;labelBackgroundColor=none;fontColor=#1D3557;" vertex="1" parent="JqWRJYdm6F3INh0vFG3V-23">
          <mxGeometry y="50" width="200" height="60" as="geometry" />
        </mxCell>
        <mxCell id="JqWRJYdm6F3INh0vFG3V-25" value="Student_course" style="swimlane;childLayout=stackLayout;horizontal=1;startSize=50;horizontalStack=0;rounded=1;fontSize=14;fontStyle=0;strokeWidth=2;resizeParent=0;resizeLast=1;shadow=0;dashed=0;align=center;arcSize=4;whiteSpace=wrap;html=1;labelBackgroundColor=none;fillColor=#A8DADC;strokeColor=#457B9D;fontColor=#1D3557;" vertex="1" parent="1">
          <mxGeometry x="690" y="280" width="200" height="160" as="geometry" />
        </mxCell>
        <mxCell id="JqWRJYdm6F3INh0vFG3V-26" value="&lt;font style=&quot;font-size: 14px;&quot;&gt;&lt;b&gt;&lt;u&gt;student_id INT (PK)&lt;br&gt;course_id INT (PK)&lt;/u&gt;&lt;/b&gt;&lt;br&gt;total_credit INT&lt;br&gt;obtained_credit DECIMAL(2,2)&lt;br&gt;total_marks INT&lt;br&gt;obtained_marks INT&lt;br&gt;&lt;/font&gt;" style="align=left;strokeColor=none;fillColor=none;spacingLeft=4;fontSize=12;verticalAlign=top;resizable=0;rotatable=0;part=1;html=1;rounded=1;labelBackgroundColor=none;fontColor=#1D3557;" vertex="1" parent="JqWRJYdm6F3INh0vFG3V-25">
          <mxGeometry y="50" width="200" height="110" as="geometry" />
        </mxCell>
        <mxCell id="JqWRJYdm6F3INh0vFG3V-29" value="Instructor" style="swimlane;childLayout=stackLayout;horizontal=1;startSize=50;horizontalStack=0;rounded=1;fontSize=14;fontStyle=0;strokeWidth=2;resizeParent=0;resizeLast=1;shadow=0;dashed=0;align=center;arcSize=4;whiteSpace=wrap;html=1;labelBackgroundColor=none;fillColor=#A8DADC;strokeColor=#457B9D;fontColor=#1D3557;" vertex="1" parent="1">
          <mxGeometry x="970" y="60" width="180" height="230" as="geometry" />
        </mxCell>
        <mxCell id="JqWRJYdm6F3INh0vFG3V-30" value="&lt;font style=&quot;font-size: 14px;&quot;&gt;&lt;u&gt;&lt;b&gt;instructor_id INT (PK)&lt;/b&gt;&lt;/u&gt;&lt;br&gt;first_name VARCHAR(25)&lt;br&gt;last_name VARCHAR(25)&lt;br&gt;email VARCHAR(50)&lt;br&gt;phone CHAR(11)&lt;br&gt;address VARCHAR(200)&lt;br&gt;faculty_id INT (FK)&lt;br&gt;department_id INT (FK)&lt;br&gt;salary&lt;br&gt;joined_date&lt;br&gt;&lt;/font&gt;" style="align=left;strokeColor=none;fillColor=none;spacingLeft=4;fontSize=12;verticalAlign=top;resizable=0;rotatable=0;part=1;html=1;rounded=1;labelBackgroundColor=none;fontColor=#1D3557;" vertex="1" parent="JqWRJYdm6F3INh0vFG3V-29">
          <mxGeometry y="50" width="180" height="180" as="geometry" />
        </mxCell>
        <mxCell id="JqWRJYdm6F3INh0vFG3V-33" value="" style="edgeStyle=entityRelationEdgeStyle;fontSize=12;html=1;endArrow=ERzeroToMany;startArrow=ERmandOne;rounded=1;entryX=0.005;entryY=0.301;entryDx=0;entryDy=0;entryPerimeter=0;exitX=1;exitY=0.75;exitDx=0;exitDy=0;labelBackgroundColor=none;strokeColor=#457B9D;fontColor=default;strokeWidth=2;" edge="1" parent="1" source="JqWRJYdm6F3INh0vFG3V-7" target="JqWRJYdm6F3INh0vFG3V-12">
          <mxGeometry width="100" height="100" relative="1" as="geometry">
            <mxPoint x="220" y="160" as="sourcePoint" />
            <mxPoint x="320" y="310" as="targetPoint" />
          </mxGeometry>
        </mxCell>
        <mxCell id="JqWRJYdm6F3INh0vFG3V-34" value="" style="edgeStyle=entityRelationEdgeStyle;fontSize=12;html=1;endArrow=ERzeroToMany;startArrow=ERmandOne;rounded=1;entryX=0.004;entryY=0.385;entryDx=0;entryDy=0;entryPerimeter=0;labelBackgroundColor=none;strokeColor=#457B9D;fontColor=default;strokeWidth=2;" edge="1" parent="1" target="JqWRJYdm6F3INh0vFG3V-13">
          <mxGeometry width="100" height="100" relative="1" as="geometry">
            <mxPoint x="219" y="470" as="sourcePoint" />
            <mxPoint x="280" y="623" as="targetPoint" />
          </mxGeometry>
        </mxCell>
        <mxCell id="JqWRJYdm6F3INh0vFG3V-36" value="" style="edgeStyle=orthogonalEdgeStyle;fontSize=12;html=1;endArrow=ERzeroToMany;startArrow=ERmandOne;rounded=1;shadow=0;labelBackgroundColor=none;strokeColor=#457B9D;fontColor=default;strokeWidth=2;" edge="1" parent="1">
          <mxGeometry width="100" height="100" relative="1" as="geometry">
            <mxPoint x="910" y="640" as="sourcePoint" />
            <mxPoint x="890" y="710" as="targetPoint" />
            <Array as="points">
              <mxPoint x="900" y="640" />
              <mxPoint x="900" y="641" />
              <mxPoint x="890" y="641" />
              <mxPoint x="890" y="643" />
              <mxPoint x="889" y="643" />
            </Array>
          </mxGeometry>
        </mxCell>
        <mxCell id="JqWRJYdm6F3INh0vFG3V-37" value="" style="fontSize=12;html=1;endArrow=ERoneToMany;rounded=1;exitX=0.558;exitY=1.036;exitDx=0;exitDy=0;exitPerimeter=0;entryX=0.114;entryY=0;entryDx=0;entryDy=0;entryPerimeter=0;edgeStyle=orthogonalEdgeStyle;labelBackgroundColor=none;strokeColor=#457B9D;fontColor=default;strokeWidth=2;" edge="1" parent="1" source="JqWRJYdm6F3INh0vFG3V-17" target="JqWRJYdm6F3INh0vFG3V-18">
          <mxGeometry width="100" height="100" relative="1" as="geometry">
            <mxPoint x="430" y="680" as="sourcePoint" />
            <mxPoint x="530" y="580" as="targetPoint" />
          </mxGeometry>
        </mxCell>
        <mxCell id="JqWRJYdm6F3INh0vFG3V-38" value="" style="edgeStyle=orthogonalEdgeStyle;fontSize=12;html=1;endArrow=ERzeroToOne;endFill=1;rounded=1;exitX=1;exitY=0.5;exitDx=0;exitDy=0;entryX=0.2;entryY=-0.002;entryDx=0;entryDy=0;entryPerimeter=0;labelBackgroundColor=none;strokeColor=#457B9D;fontColor=default;strokeWidth=2;" edge="1" parent="1" source="JqWRJYdm6F3INh0vFG3V-7" target="JqWRJYdm6F3INh0vFG3V-16">
          <mxGeometry width="100" height="100" relative="1" as="geometry">
            <mxPoint x="470" y="235" as="sourcePoint" />
            <mxPoint x="570" y="310" as="targetPoint" />
          </mxGeometry>
        </mxCell>
        <mxCell id="JqWRJYdm6F3INh0vFG3V-40" value="" style="fontSize=12;html=1;endArrow=ERmandOne;startArrow=ERmandOne;rounded=1;exitX=1;exitY=0;exitDx=0;exitDy=0;entryX=0;entryY=0.25;entryDx=0;entryDy=0;labelBackgroundColor=none;strokeColor=#457B9D;fontColor=default;strokeWidth=2;" edge="1" parent="1" source="JqWRJYdm6F3INh0vFG3V-7" target="JqWRJYdm6F3INh0vFG3V-15">
          <mxGeometry width="100" height="100" relative="1" as="geometry">
            <mxPoint x="440" y="145" as="sourcePoint" />
            <mxPoint x="540" y="45" as="targetPoint" />
          </mxGeometry>
        </mxCell>
        <mxCell id="JqWRJYdm6F3INh0vFG3V-41" value="" style="edgeStyle=elbowEdgeStyle;fontSize=12;html=1;endArrow=ERzeroToMany;startArrow=ERmandOne;rounded=1;exitX=1.024;exitY=0.197;exitDx=0;exitDy=0;exitPerimeter=0;labelBackgroundColor=none;strokeColor=#457B9D;fontColor=default;strokeWidth=2;" edge="1" parent="1">
          <mxGeometry width="100" height="100" relative="1" as="geometry">
            <mxPoint x="219.99999999999994" y="140.00000000000003" as="sourcePoint" />
            <mxPoint x="690" y="340" as="targetPoint" />
            <Array as="points">
              <mxPoint x="560" y="240" />
            </Array>
          </mxGeometry>
        </mxCell>
        <mxCell id="JqWRJYdm6F3INh0vFG3V-44" value="" style="fontSize=12;html=1;endArrow=ERoneToMany;rounded=1;edgeStyle=orthogonalEdgeStyle;exitX=0;exitY=0.25;exitDx=0;exitDy=0;startArrow=ERmandOne;startFill=0;labelBackgroundColor=none;strokeColor=#457B9D;fontColor=default;strokeWidth=2;" edge="1" parent="1" source="JqWRJYdm6F3INh0vFG3V-20">
          <mxGeometry width="100" height="100" relative="1" as="geometry">
            <mxPoint x="870" y="682.5" as="sourcePoint" />
            <mxPoint x="820" y="440" as="targetPoint" />
          </mxGeometry>
        </mxCell>
        <mxCell id="JqWRJYdm6F3INh0vFG3V-46" value="" style="edgeStyle=orthogonalEdgeStyle;fontSize=12;html=1;endArrow=ERzeroToMany;startArrow=ERmandOne;rounded=1;labelBackgroundColor=none;strokeColor=#C73500;fontColor=default;fillColor=#fa6800;strokeWidth=2;entryX=0;entryY=0.444;entryDx=0;entryDy=0;entryPerimeter=0;" edge="1" parent="1">
          <mxGeometry width="100" height="100" relative="1" as="geometry">
            <mxPoint x="670" y="470" as="sourcePoint" />
            <mxPoint x="970" y="199.95999999999984" as="targetPoint" />
            <Array as="points">
              <mxPoint x="901" y="470.04" />
              <mxPoint x="901" y="200.04" />
            </Array>
          </mxGeometry>
        </mxCell>
        <mxCell id="JqWRJYdm6F3INh0vFG3V-47" value="" style="edgeStyle=orthogonalEdgeStyle;fontSize=12;html=1;endArrow=ERzeroToMany;startArrow=ERmandOne;rounded=1;labelBackgroundColor=none;strokeColor=#C73500;fontColor=default;fillColor=#fa6800;strokeWidth=2;exitX=0.2;exitY=0;exitDx=0;exitDy=0;exitPerimeter=0;" edge="1" parent="1" source="JqWRJYdm6F3INh0vFG3V-18">
          <mxGeometry width="100" height="100" relative="1" as="geometry">
            <mxPoint x="640" y="640" as="sourcePoint" />
            <mxPoint x="970" y="270.02" as="targetPoint" />
            <Array as="points">
              <mxPoint x="640" y="540" />
              <mxPoint x="931" y="540" />
              <mxPoint x="931" y="270" />
            </Array>
          </mxGeometry>
        </mxCell>
      </root>
    </mxGraphModel>
  </diagram>
</mxfile>
